<mxfile host="app.diagrams.net" modified="2024-11-13T15:40:09.684Z" agent="Mozilla/5.0 (Windows NT 10.0; Win64; x64; rv:132.0) Gecko/20100101 Firefox/132.0" etag="JMZiICK3r4UwTsOQJQTt" version="24.7.1" type="github">
  <diagram id="kgpKYQtTHZ0yAKxKKP6v" name="Page-1">
    <mxGraphModel dx="1194" dy="681" grid="1" gridSize="10" guides="1" tooltips="1" connect="1" arrows="1" fold="1" page="1" pageScale="1" pageWidth="850" pageHeight="1100" math="0" shadow="0">
      <root>
        <mxCell id="0" />
        <mxCell id="1" parent="0" />
        <mxCell id="U2cqP8np_BF_2Da-hMUV-1" value="Pool" style="swimlane;childLayout=stackLayout;resizeParent=1;resizeParentMax=0;startSize=20;html=1;" vertex="1" parent="1">
          <mxGeometry x="160" y="60" width="810" height="550" as="geometry">
            <mxRectangle x="160.00000000000045" y="60" width="70" height="30" as="alternateBounds" />
          </mxGeometry>
        </mxCell>
        <mxCell id="U2cqP8np_BF_2Da-hMUV-2" value="Frontend" style="swimlane;startSize=20;html=1;" vertex="1" parent="U2cqP8np_BF_2Da-hMUV-1">
          <mxGeometry y="20" width="120" height="530" as="geometry" />
        </mxCell>
        <mxCell id="U2cqP8np_BF_2Da-hMUV-3" value="Middleware" style="swimlane;startSize=20;html=1;" vertex="1" parent="U2cqP8np_BF_2Da-hMUV-1">
          <mxGeometry x="120" y="20" width="120" height="530" as="geometry" />
        </mxCell>
        <mxCell id="U2cqP8np_BF_2Da-hMUV-4" value="Query Queue" style="swimlane;startSize=20;html=1;" vertex="1" parent="U2cqP8np_BF_2Da-hMUV-1">
          <mxGeometry x="240" y="20" width="120" height="530" as="geometry" />
        </mxCell>
        <mxCell id="U2cqP8np_BF_2Da-hMUV-8" value="OSoMe Swap" style="swimlane;startSize=20;html=1;" vertex="1" parent="U2cqP8np_BF_2Da-hMUV-1">
          <mxGeometry x="360" y="20" width="150" height="530" as="geometry" />
        </mxCell>
        <mxCell id="U2cqP8np_BF_2Da-hMUV-7" value="Priority Queue" style="swimlane;startSize=20;html=1;" vertex="1" parent="U2cqP8np_BF_2Da-hMUV-1">
          <mxGeometry x="510" y="20" width="150" height="530" as="geometry" />
        </mxCell>
        <mxCell id="U2cqP8np_BF_2Da-hMUV-6" value="Barney Processor" style="swimlane;startSize=20;html=1;" vertex="1" parent="U2cqP8np_BF_2Da-hMUV-1">
          <mxGeometry x="660" y="20" width="150" height="530" as="geometry" />
        </mxCell>
      </root>
    </mxGraphModel>
  </diagram>
</mxfile>
